<?xml version="1.0" encoding="utf-8"?>
<!-- Generator: Adobe Illustrator 25.0.0, SVG Export Plug-In . SVG Version: 6.00 Build 0)  -->
<svg version="1.1" id="Capa_1" xmlns="http://www.w3.org/2000/svg" xmlns:xlink="http://www.w3.org/1999/xlink" x="0px" y="0px"
	 viewBox="0 0 427.1 427.1" style="enable-background:new 0 0 427.1 427.1;" xml:space="preserve">
<style type="text/css">
	.st0{fill:#FFFFFF;}
</style>
<g>
	<g>
		<path class="st0" d="M364.8,11L364.8,11c-7.1-3.3-15.6-2-21.4,3.3l-27.8,24.6L277.9,5.1c-7.6-6.8-19.1-6.8-26.7,0l-37.7,33.7
			L175.8,5.1c-7.6-6.8-19.1-6.8-26.7,0l-37.8,33.8L83.6,14.3c-8.2-7.3-20.7-6.5-28,1.6c-3.3,3.7-5,8.4-5,13.3v368.5
			c-0.1,11,8.8,19.9,19.8,20c4.9,0,9.7-1.8,13.3-5l27.8-24.6l37.8,33.8c7.6,6.8,19.1,6.8,26.7,0l37.7-33.7l37.7,33.7
			c7.6,6.8,19.1,6.8,26.7,0l37.8-33.8l27.8,24.6c8.2,7.3,20.7,6.6,28-1.6c3.3-3.7,5.1-8.4,5-13.3V29.3C376.6,21.4,372,14.2,364.8,11
			z M328.9,373.2c-7.6-6.7-19-6.7-26.6,0.1L264.6,407l-37.7-33.7c-7.6-6.8-19.1-6.8-26.7,0L162.5,407l-37.8-33.8
			c-7.5-6.8-18.9-6.8-26.5-0.1l-27.7,24.6v-53.3L70.4,29.3l27.7,24.6c7.6,6.7,19,6.7,26.6-0.1L162.5,20l37.7,33.7
			c7.6,6.8,19.1,6.8,26.7,0L264.6,20l37.8,33.8c7.5,6.8,18.9,6.8,26.5,0.1l27.7-24.6v253.3l0.1,115.2L328.9,373.2z"/>
	</g>
</g>
<g>
	<g>
		<path class="st0" d="M308.3,203.5H118.7c-5.5,0-10,4.5-10,10s4.5,10,10,10h189.6c5.5,0,10-4.5,10-10S313.8,203.5,308.3,203.5z"/>
	</g>
</g>
<g>
	<g>
		<path class="st0" d="M218.3,143.5h-99.6c-5.5,0-10,4.5-10,10s4.5,10,10,10h99.6c5.5,0,10-4.5,10-10S223.8,143.5,218.3,143.5z"/>
	</g>
</g>
<g>
	<g>
		<path class="st0" d="M308.3,263.5H118.7c-5.5,0-10,4.5-10,10s4.5,10,10,10h189.6c5.5,0,10-4.5,10-10S313.8,263.5,308.3,263.5z"/>
	</g>
</g>
</svg>
