<?xml version="1.0" encoding="utf-8"?>
<!-- Generator: Adobe Illustrator 24.3.0, SVG Export Plug-In . SVG Version: 6.00 Build 0)  -->
<svg version="1.1" id="Capa_1" xmlns="http://www.w3.org/2000/svg" xmlns:xlink="http://www.w3.org/1999/xlink" x="0px" y="0px"
	 viewBox="0 0 512 512" style="enable-background:new 0 0 512 512;" xml:space="preserve">
<style type="text/css">
	.st0{fill:#FFFFFF;}
</style>
<g>
	<g>
		<path class="st0" d="M437.3,0H74.7c-17.6,0-32,14.4-32,32v448c0,17.6,14.4,32,32,32h362.7c17.6,0,32-14.4,32-32V32
			C469.3,14.4,455,0,437.3,0z M448,480c0,5.9-4.8,10.7-10.7,10.7H74.7c-5.9,0-10.7-4.8-10.7-10.7v-53.3h23.3
			c4.4,12.4,16.1,21.3,30,21.3c17.6,0,32-14.4,32-32s-14.4-32-32-32c-13.9,0-25.6,8.9-30,21.3H64V320h23.3
			c4.4,12.4,16.1,21.3,30,21.3c17.6,0,32-14.4,32-32s-14.4-32-32-32c-13.9,0-25.6,8.9-30,21.3H64v-85.3h23.3
			c4.4,12.4,16.1,21.3,30,21.3c17.6,0,32-14.4,32-32s-14.4-32-32-32c-13.9,0-25.6,8.9-30,21.3H64v-85.3h23.3
			c4.4,12.4,16.1,21.3,30,21.3c17.6,0,32-14.4,32-32s-14.4-32-32-32c-13.9,0-25.6,8.9-30,21.3H64V32c0-5.9,4.8-10.7,10.7-10.7h362.7
			c5.9,0,10.7,4.8,10.7,10.7V480z M106.7,416c0-5.9,4.8-10.7,10.7-10.7c5.9,0,10.7,4.8,10.7,10.7s-4.8,10.7-10.7,10.7
			C111.5,426.7,106.7,421.9,106.7,416z M106.7,309.3c0-5.9,4.8-10.7,10.7-10.7s10.7,4.8,10.7,10.7s-4.8,10.7-10.7,10.7
			C111.5,320,106.7,315.2,106.7,309.3z M106.7,202.7c0-5.9,4.8-10.7,10.7-10.7c5.9,0,10.7,4.8,10.7,10.7s-4.8,10.7-10.7,10.7
			C111.5,213.3,106.7,208.6,106.7,202.7z M106.7,96c0-5.9,4.8-10.7,10.7-10.7c5.9,0,10.7,4.8,10.7,10.7s-4.8,10.7-10.7,10.7
			C111.5,106.7,106.7,101.9,106.7,96z"/>
	</g>
</g>
<g>
	<g>
		<path class="st0" d="M394.7,213.3h-192c-5.9,0-10.7,4.8-10.7,10.7s4.8,10.7,10.7,10.7h192c5.9,0,10.7-4.8,10.7-10.7
			S400.6,213.3,394.7,213.3z"/>
	</g>
</g>
<g>
	<g>
		<path class="st0" d="M394.7,128h-192c-5.9,0-10.7,4.8-10.7,10.7s4.8,10.7,10.7,10.7h192c5.9,0,10.7-4.8,10.7-10.7
			S400.6,128,394.7,128z"/>
	</g>
</g>
<g>
	<g>
		<path class="st0" d="M394.7,298.7h-192c-5.9,0-10.7,4.8-10.7,10.7s4.8,10.7,10.7,10.7h192c5.9,0,10.7-4.8,10.7-10.7
			S400.6,298.7,394.7,298.7z"/>
	</g>
</g>
<g>
	<g>
		<path class="st0" d="M352,384H202.7c-5.9,0-10.7,4.8-10.7,10.7s4.8,10.7,10.7,10.7H352c5.9,0,10.7-4.8,10.7-10.7
			S357.9,384,352,384z"/>
	</g>
</g>
</svg>
