<?xml version="1.0" encoding="utf-8"?>
<!-- Generator: Adobe Illustrator 25.0.0, SVG Export Plug-In . SVG Version: 6.00 Build 0)  -->
<svg version="1.1" id="Capa_1" xmlns="http://www.w3.org/2000/svg" xmlns:xlink="http://www.w3.org/1999/xlink" x="0px" y="0px"
	 viewBox="0 0 512 512" style="enable-background:new 0 0 512 512;" xml:space="preserve">
<style type="text/css">
	.st0{fill:#FFFFFF;}
</style>
<g>
	<g>
		<g>
			<path class="st0" d="M501.3,245.3H271.8c-2.8,0-5.1-2.3-5.1-5.1V10.7C266.7,4.8,261.9,0,256,0C185,0.1,117.3,29.6,68.8,81.4
				C-27.6,184.8-22,346.8,81.4,443.2c42.8,39.9,98.1,64,156.5,68.2c6.1,0.4,12.2,0.6,18.1,0.6c64.8,0.2,127.2-24.4,174.4-68.8
				C482.3,394.8,511.8,327,512,256C512,250.1,507.2,245.3,501.3,245.3z M416,427.6c-47.5,44.7-111.7,67.4-176.7,62.5
				C109.9,482.5,11.2,371.4,18.8,242.1C25.9,121,124.1,25.3,245.3,21.3v218.9c-0.2,1.7-0.2,3.4,0,5.1h-32v21.3h49.9l180.3,130.1
				C435.3,407.9,426.1,418.2,416,427.6z M455.5,379.2h-0.1L299.6,266.7h191C488.7,306.6,476.6,345.3,455.5,379.2z"/>
			<path class="st0" d="M324.1,213.3h177.3c5.9,0,10.7-4.8,10.7-10.7C512,90.7,421.3,0,309.3,0c-5.9,0-10.7,4.8-10.7,10.7v177.3
				C298.7,201.9,310.1,213.3,324.1,213.3z M320,21.3C412,26.6,485.4,100,490.7,192H324.1c-2.2-0.1-4-1.8-4.1-4.1L320,21.3L320,21.3z
				"/>
			<rect x="170.7" y="245.3" class="st0" width="21.3" height="21.3"/>
		</g>
	</g>
</g>
</svg>
