<?xml version="1.0" encoding="utf-8"?>
<!-- Generator: Adobe Illustrator 25.0.0, SVG Export Plug-In . SVG Version: 6.00 Build 0)  -->
<svg version="1.1" id="Capa_1" xmlns="http://www.w3.org/2000/svg" xmlns:xlink="http://www.w3.org/1999/xlink" x="0px" y="0px"
	 viewBox="0 0 469.3 469.3" style="enable-background:new 0 0 469.3 469.3;" xml:space="preserve">
<style type="text/css">
	.st0{fill:#00416A;}
</style>
<g>
	<g>
		<g>
			<path class="st0" d="M298.7,277.3c-56.9,0-170.7,28.5-170.7,85.3v42.7h341.3v-42.7C469.3,305.8,355.5,277.3,298.7,277.3z"/>
			<path class="st0" d="M298.7,234.7c47.1,0,85.3-38.3,85.3-85.3c0-47.1-38.2-85.3-85.3-85.3s-85.3,38.2-85.3,85.3
				C213.3,196.4,251.5,234.7,298.7,234.7z"/>
			<polygon class="st0" points="170.7,192 106.7,192 106.7,128 64,128 64,192 0,192 0,234.7 64,234.7 64,298.7 106.7,298.7 
				106.7,234.7 170.7,234.7 			"/>
		</g>
	</g>
</g>
</svg>
